# xmcd
#
# Track frame offsets: 
#        150
#        19362
#        35987
#        56317
#        78247
#        98880
#        122850
#        147670
#        170910
#        191357
#        222852
#        245682
#
# Disc length: 3582 seconds
#
# Revision: 0
# Processed by: cddbd v1.5.2PL0 Copyright (c) Steve Scherf et al.
# Submitted via: ExactAudioCopy v0.95b3
#
DISCID=b40dfc0c
DTITLE=Big Belly Blues Band - Big Belly Blues Band
DYEAR=2002
DGENRE=Blues
TTITLE0=Bluesville
TTITLE1=Too Much
TTITLE2=One Summer Night
TTITLE3=Baby Cakes
TTITLE4=Billie's Bounce
TTITLE5=Big Belly Blues
TTITLE6=Good Thang
TTITLE7=Lower Bottom Blues
TTITLE8=Nobody's Home
TTITLE9=Soul Mates
TTITLE10=Texas Boy
TTITLE11=Summer Knows
EXTD=
EXTT0=
EXTT1=
EXTT2=
EXTT3=
EXTT4=
EXTT5=
EXTT6=
EXTT7=
EXTT8=
EXTT9=
EXTT10=
EXTT11=
PLAYORDER=
